<!-- Generated by IcoMoon.io -->
<svg version="1.1" xmlns="http://www.w3.org/2000/svg" width="20" height="32" viewBox="0 0 20 32">
<title>new</title>
<path fill="#5b6770" d="M15.858 5.447h-10.911c-0.007-0-0.014-0-0.022-0-0.306 0-0.557 0.242-0.57 0.545l-0 0.001v10.879c0.004 0.209 0.125 0.388 0.3 0.475l0.003 0.001c0.084 0.044 0.183 0.069 0.288 0.069 0.114 0 0.221-0.030 0.313-0.082l-0.003 0.002 5.143-2.917 5.148 2.916c0.089 0.051 0.196 0.081 0.31 0.081 0.105 0 0.205-0.026 0.292-0.071l-0.004 0.002c0.178-0.089 0.3-0.268 0.303-0.476v-10.878c-0.013-0.304-0.262-0.546-0.569-0.546-0.008 0-0.017 0-0.025 0.001l0.001-0zM15.858 16.87l-5.37-3.041c-0.026-0.015-0.056-0.025-0.089-0.025h-0c-0.032 0-0.062 0.009-0.087 0.024l0.001-0-5.365 3.044v-10.879h10.911z"></path>
<path fill="#5b6770" d="M15.858 0h-10.911c-0.007-0-0.014-0-0.022-0-0.306 0-0.557 0.242-0.57 0.545l-0 0.001v3.301c0.013 0.304 0.263 0.546 0.57 0.546 0.008 0 0.016-0 0.023-0l-0.001 0h10.911c0.007 0 0.014 0 0.022 0 0.307 0 0.557-0.242 0.57-0.545l0-0.001v-3.301c-0.013-0.304-0.263-0.546-0.57-0.546-0.008 0-0.016 0-0.023 0l0.001-0zM15.858 3.846h-10.911v-3.301h10.911z"></path>
</svg>
