<!-- Generated by IcoMoon.io -->
<svg version="1.1" xmlns="http://www.w3.org/2000/svg" width="17" height="32" viewBox="0 0 17 32">
<title>top</title>
<path fill="#5b6770" d="M16.997 6.453c-0.077-0.264-0.304-0.459-0.58-0.487l-0.003-0-5.207-0.505-1.033-2.51c-0.036-0.093-0.125-0.157-0.229-0.157-0.036 0-0.070 0.008-0.101 0.022l0.002-0.001c-0.090 0.044-0.152 0.135-0.152 0.24 0 0.037 0.008 0.073 0.022 0.105l-0.001-0.002 1.091 2.653c0.034 0.085 0.112 0.147 0.205 0.157l0.001 0 5.355 0.52c0.074 0.007 0.135 0.059 0.154 0.128l0 0.001c0.006 0.018 0.010 0.039 0.010 0.060 0 0.055-0.024 0.105-0.062 0.139l-0 0-4.040 3.717c-0.052 0.049-0.085 0.119-0.085 0.196 0 0.020 0.002 0.040 0.007 0.059l-0-0.002 1.183 5.493c0.003 0.013 0.005 0.028 0.005 0.044 0 0.061-0.030 0.116-0.076 0.149l-0.001 0c-0.028 0.023-0.065 0.037-0.105 0.037-0.034 0-0.066-0.010-0.093-0.028l0.001 0-4.624-2.875c-0.036-0.023-0.080-0.037-0.127-0.037s-0.091 0.014-0.128 0.037l0.001-0.001-4.624 2.875c-0.026 0.017-0.058 0.028-0.092 0.028-0.040 0-0.076-0.014-0.105-0.037l0 0c-0.046-0.034-0.076-0.089-0.076-0.15 0-0.015 0.002-0.031 0.005-0.045l-0 0.001 0.61-2.838c0.004-0.018 0.007-0.038 0.007-0.059 0-0.121-0.082-0.223-0.194-0.253l-0.002-0c-0.016-0.004-0.034-0.006-0.053-0.006-0.121 0-0.222 0.087-0.245 0.201l-0 0.002-0.61 2.838c-0.012 0.048-0.018 0.104-0.018 0.161 0 0.232 0.11 0.438 0.28 0.569l0.002 0.001c0.108 0.086 0.247 0.137 0.398 0.137 0.129 0 0.249-0.038 0.35-0.103l-0.003 0.002 4.497-2.797 4.496 2.796c0.098 0.064 0.218 0.101 0.347 0.101 0.151 0 0.29-0.052 0.399-0.139l-0.001 0.001c0.172-0.132 0.282-0.338 0.282-0.57 0-0.057-0.007-0.113-0.019-0.166l0.001 0.005-1.15-5.342 3.929-3.614c0.144-0.132 0.233-0.321 0.233-0.531 0-0.080-0.013-0.156-0.037-0.228l0.001 0.005z"></path>
<path fill="#5b6770" d="M3.861 12.21c-0.004 0.018-0.007 0.038-0.007 0.059 0 0.121 0.082 0.223 0.194 0.253l0.002 0c0.016 0.004 0.035 0.006 0.054 0.006 0 0 0.001 0 0.001 0h-0c0.12-0.002 0.22-0.088 0.243-0.202l0-0.002 0.331-1.538c0.004-0.017 0.006-0.037 0.006-0.057 0-0.077-0.033-0.147-0.085-0.196l-0-0-4.040-3.721c-0.038-0.034-0.062-0.084-0.062-0.14 0-0.021 0.004-0.042 0.010-0.061l-0 0.001c0.020-0.070 0.080-0.122 0.154-0.129l0.001-0 5.355-0.52c0.094-0.011 0.171-0.072 0.205-0.155l0.001-0.002 2.129-5.172c0.026-0.067 0.090-0.113 0.165-0.113s0.139 0.047 0.165 0.112l0 0.001 0.578 1.404c0.036 0.093 0.125 0.157 0.229 0.157 0.036 0 0.070-0.008 0.101-0.022l-0.002 0.001c0.090-0.044 0.151-0.135 0.151-0.24 0-0.037-0.008-0.073-0.022-0.105l0.001 0.002-0.58-1.406c-0.098-0.253-0.34-0.43-0.623-0.43s-0.525 0.176-0.622 0.425l-0.002 0.005-2.068 5.033-5.207 0.505c-0.279 0.029-0.505 0.224-0.581 0.483l-0.001 0.005c-0.022 0.067-0.035 0.143-0.035 0.223 0 0.21 0.089 0.398 0.232 0.53l0 0 3.929 3.614z"></path>
</svg>
