<!-- Generated by IcoMoon.io -->
<svg version="1.1" xmlns="http://www.w3.org/2000/svg" width="17" height="32" viewBox="0 0 17 32">
<title>all</title>
<path fill="#00a9e0" d="M10.885 0h-4.354c-0.188 0-0.34 0.152-0.34 0.34v0 4.354c0 0.188 0.152 0.34 0.34 0.34v0h4.354c0.188 0 0.34-0.152 0.34-0.34v0-4.354c0-0.188-0.152-0.34-0.34-0.34v0zM10.545 4.354h-3.672v-3.674h3.672z"></path>
<path fill="#00a9e0" d="M17.077 0h-4.354c-0.188 0-0.34 0.152-0.34 0.34v0 4.354c0 0.188 0.152 0.34 0.34 0.34v0h4.354c0.188-0 0.34-0.153 0.34-0.34v-4.354c0-0.188-0.152-0.34-0.34-0.34v0zM16.737 4.354h-3.672v-3.674h3.672z"></path>
<path fill="#00a9e0" d="M4.693 6.191h-4.354c-0.187 0.001-0.338 0.153-0.338 0.34 0 0 0 0 0 0v0 4.354c0 0.188 0.152 0.34 0.34 0.34v0h4.354c0.188 0 0.34-0.152 0.34-0.34v0-4.354c-0-0.188-0.153-0.34-0.341-0.34-0 0-0.001 0-0.002 0h0zM0.68 10.545v-3.674h3.674v3.674z"></path>
<path fill="#00a9e0" d="M10.885 6.191h-4.354c-0.188 0-0.34 0.152-0.34 0.34v0 4.354c0 0.188 0.152 0.34 0.34 0.34v0h4.354c0.188 0 0.34-0.152 0.34-0.34v0-4.354c0-0.188-0.152-0.34-0.34-0.34v0zM10.545 10.545h-3.672v-3.674h3.672z"></path>
<path fill="#00a9e0" d="M17.077 6.191h-4.354c-0.188 0-0.34 0.152-0.34 0.34v0 4.354c0 0.188 0.152 0.34 0.34 0.34v0h4.354c0.188 0 0.34-0.152 0.34-0.34v0-4.354c0-0.188-0.152-0.34-0.34-0.34v0zM16.737 10.545h-3.672v-3.674h3.672z"></path>
<path fill="#00a9e0" d="M4.693 12.382h-4.354c-0.187 0.001-0.338 0.153-0.338 0.34 0 0 0 0 0 0v0 4.354c0 0.188 0.152 0.34 0.34 0.34v0h4.354c0.188 0 0.34-0.152 0.34-0.34v0-4.354c-0-0.188-0.153-0.34-0.34-0.34-0.001 0-0.002 0-0.002 0h0zM0.68 16.737v-3.674h3.674v3.674z"></path>
<path fill="#00a9e0" d="M10.885 12.382h-4.354c-0.188 0-0.34 0.152-0.34 0.34v0 4.354c0 0.188 0.152 0.34 0.34 0.34v0h4.354c0.188 0 0.34-0.152 0.34-0.34v0-4.354c0-0.188-0.152-0.34-0.34-0.34v0zM10.545 16.737h-3.672v-3.674h3.672z"></path>
<path fill="#00a9e0" d="M15.258 12.964c0.062-0.062 0.1-0.147 0.1-0.241 0-0.188-0.152-0.34-0.34-0.34s-0.34 0.152-0.34 0.34c0 0.188 0.152 0.34 0.34 0.34h0c0.094-0 0.179-0.038 0.241-0.099l-0 0z"></path>
<path fill="#00a9e0" d="M17.078 12.382h-0.523c-0.188 0-0.34 0.152-0.34 0.34s0.152 0.34 0.34 0.34h0.179v3.674h-3.672v-3.674h0.456c0.188 0 0.34-0.152 0.34-0.34s-0.152-0.34-0.34-0.34h-0.798c-0.188 0-0.34 0.152-0.34 0.34v0 4.354c0 0.188 0.152 0.34 0.34 0.34v0h4.354c0.188 0 0.34-0.152 0.34-0.34v0-4.354c0-0 0-0.001 0-0.001 0-0.186-0.15-0.337-0.336-0.339h-0z"></path>
<path fill="#00a9e0" d="M2.16 4.454c-0.061 0.061-0.099 0.146-0.099 0.24 0 0.188 0.152 0.34 0.34 0.34s0.34-0.152 0.34-0.34c0-0.094-0.038-0.178-0.099-0.24v0c-0.062-0.060-0.147-0.097-0.24-0.097-0 0-0 0-0 0h0c-0.001 0-0.002 0-0.003 0-0.093 0-0.177 0.037-0.238 0.097l0-0z"></path>
<path fill="#00a9e0" d="M0.34 5.034h0.519c0.188 0 0.34-0.152 0.34-0.34s-0.152-0.34-0.34-0.34h-0.179v-3.674h3.674v3.674h-0.458c-0.188 0-0.34 0.152-0.34 0.34s0.152 0.34 0.34 0.34h0.798c0.188 0 0.34-0.152 0.34-0.34v0-4.354c-0-0.188-0.153-0.34-0.341-0.34-0 0-0.001 0-0.002 0h-4.354c-0.187 0.001-0.338 0.153-0.338 0.34 0 0 0 0 0 0v0 4.354c0 0 0 0 0 0 0 0.188 0.152 0.34 0.34 0.34 0 0 0.001 0 0.001 0h-0z"></path>
</svg>
